<?xml version="1.0" encoding="UTF-8"?>
<svg
  role="img"
  xmlns="http://www.w3.org/2000/svg"
  viewBox="0 0 850.39 850.39"
>
  <path d="M695.89,284.46c-4.96-5.3-13.71-.15-11.58,6.79,2.29,7.43,3.48,15.06,3.48,22.87,0,77.69-117.68,140.43-262.36,140.43s-262.48-62.75-262.48-140.43c0-7.96,1.24-15.74,3.61-23.3,2.17-6.92-6.59-12.09-11.57-6.82-44.34,46.91-70.65,106.24-70.65,170.55,0,35.97,8.27,70.33,23.1,101.71,4.71,10,10.34,19.88,16.2,29.19,7.01,10.8,14.94,21.37,23.44,31.37,7.35,8.5,15.28,16.43,23.56,24.36l.1.1c5.87,5.47,13.91,7.75,21.84,6.55,4.86-.73,10.24-1.13,16.32-1.13,54.01,0,54.01,32.64,108.02,32.64s54.01-32.64,108.14-32.64,54.01,32.64,108.14,32.64,54.01-32.64,108.02-32.64c5.87,0,11.1.37,15.82,1.04,8.22,1.17,16.61-1.03,22.69-6.69.03-.03.07-.06.1-.1,8.5-7.36,16.2-15.63,23.44-24.13,8.85-10,16.55-20.57,23.79-31.37,5.98-9.31,11.26-19.19,15.86-29.19,14.82-31.37,23.1-65.73,23.1-101.71,0-64.17-26.19-123.14-70.16-170.1Z" />
  <path d="M425.2,407.68c37.69,0,71.36-4.71,100.44-11.95,15.89-3.93,30.48-8.87,43.52-14.4,10.92-4.63,18.64-14.7,19.99-26.48,3.51-30.68,15.62-54.89,25.43-70.08,7.5-11.61,7.26-26.55-.86-37.73l-74.81-102.98c-6.24-8.59-16.22-13.68-26.84-13.68h-173.73c-10.62,0-20.6,5.08-26.84,13.68l-74.81,102.98c-8.12,11.18-8.36,26.12-.86,37.73,9.81,15.19,21.92,39.4,25.43,70.08,1.35,11.78,9.07,21.85,19.99,26.48,13.04,5.53,27.63,10.46,43.52,14.4,29.08,7.24,62.75,11.95,100.44,11.95" />
</svg>
